<svg width="10" height="5" viewBox="0 0 10 5" fill="none" xmlns="http://www.w3.org/2000/svg">
<path d="M9.01552 0.971576L5.26552 4.72158C5.23069 4.75644 5.18934 4.7841 5.14381 4.80297C5.09829 4.82185 5.04949 4.83156 5.00021 4.83156C4.95093 4.83156 4.90213 4.82185 4.85661 4.80297C4.81108 4.7841 4.76972 4.75644 4.7349 4.72158L0.984896 0.971576C0.914531 0.901211 0.875 0.805775 0.875 0.706263C0.875 0.606752 0.914531 0.511316 0.984896 0.440951C1.05526 0.370585 1.1507 0.331055 1.25021 0.331055C1.34972 0.331055 1.44516 0.370585 1.51552 0.440951L5.00021 3.92611L8.4849 0.440951C8.51974 0.406109 8.5611 0.378472 8.60662 0.359616C8.65214 0.34076 8.70094 0.331055 8.75021 0.331055C8.79948 0.331055 8.84827 0.34076 8.8938 0.359616C8.93932 0.378472 8.98068 0.406109 9.01552 0.440951C9.05036 0.475792 9.078 0.517155 9.09686 0.562677C9.11571 0.608199 9.12542 0.65699 9.12542 0.706263C9.12542 0.755536 9.11571 0.804327 9.09686 0.849849C9.078 0.895372 9.05036 0.936734 9.01552 0.971576Z" fill="white" fill-opacity="0.7"/>
</svg>
